<svg width="259" height="19" viewBox="0 0 259 19" fill="none" xmlns="http://www.w3.org/2000/svg">
<path d="M5.05552 15.3051V3.87514H1.32673V1.90768H11.2952V3.87514H7.56637V15.3051H5.05552ZM19.2162 15.4925C15.1127 15.4925 12.4332 12.5507 12.4332 8.69072V8.54082C12.4332 4.62465 15.2438 1.72031 19.2162 1.72031C23.2073 1.72031 25.9618 4.5497 25.9618 8.4846V8.63451C25.9618 12.5507 23.2823 15.4925 19.2162 15.4925ZM19.2537 13.4876C21.7833 13.4876 23.376 11.5576 23.376 8.65324V8.50334C23.376 5.74891 21.8395 3.7065 19.2162 3.7065C16.5929 3.7065 15.0377 5.63648 15.0377 8.52208V8.67198C15.0377 11.5951 16.8178 13.4876 19.2537 13.4876ZM31.6592 10.4521C31.4156 13.2814 30.6099 15.4925 28.099 15.4925C27.4994 15.4925 27.1622 15.3051 27.1622 15.3051V13.169C27.1622 13.169 27.3495 13.244 27.7618 13.244C28.7923 13.244 29.2233 12.1384 29.4107 9.98362C29.6355 7.28539 29.6917 3.76271 29.6917 1.90768H38.5921V15.3051H36.0813V3.91261H31.959C31.9215 5.74891 31.8278 8.29723 31.6592 10.4521ZM42.0369 15.3051V1.90768H44.529V6.98559H46.4028C49.2697 6.98559 51.2933 8.22228 51.2933 11.0517V11.1266C51.2933 13.9373 49.3446 15.3051 46.3466 15.3051H42.0369ZM44.529 13.3751H46.3466C47.9206 13.3751 48.8762 12.7193 48.8762 11.1079V11.0329C48.8762 9.55265 47.9955 8.80315 46.3466 8.80315H44.529V13.3751ZM53.83 15.3051V1.90768H56.3221V7.97869L61.4562 1.88895H64.1357L58.5893 8.29723L64.4167 15.3051H61.4749L56.3221 9.04673V15.3051H53.83ZM71.5485 15.4925C67.4449 15.4925 64.7654 12.5507 64.7654 8.69072V8.54082C64.7654 4.62465 67.5761 1.72031 71.5485 1.72031C75.5396 1.72031 78.294 4.5497 78.294 8.4846V8.63451C78.294 12.5507 75.6145 15.4925 71.5485 15.4925ZM71.5859 13.4876C74.1155 13.4876 75.7082 11.5576 75.7082 8.65324V8.50334C75.7082 5.74891 74.1717 3.7065 71.5485 3.7065C68.9252 3.7065 67.37 5.63648 67.37 8.52208V8.67198C67.37 11.5951 69.15 13.4876 71.5859 13.4876ZM85.9153 15.3051V1.90768H88.4074V7.60393H94.4222V1.90768H96.933V15.3051H94.4222V9.60886H88.4074V15.3051H85.9153ZM105.29 3.95009L103.303 10.171H107.257L105.29 3.95009ZM99.331 15.3051L103.809 1.90768H107.07L111.492 15.3051H108.906L107.838 11.9885H102.723L101.673 15.3051H99.331Z" fill="white"/>
<mask id="mask0_2_614" style="mask-type:alpha" maskUnits="userSpaceOnUse" x="119" y="0" width="140" height="18">
<path d="M123.072 0.340347V5.54078L126.602 0.340347H130.713L124.742 6.43522L135.646 0.340347V4.21099L125.856 7.88691L135.646 6.96872V10.6446L125.856 9.72645L135.646 13.4024V17.2714L124.742 11.1781L130.713 17.273H126.599L123.069 12.0726V17.273H119.684V0.340347H123.072Z" fill="url(#paint0_radial_2_614)"/>
<path d="M138.06 0.340347H142.048L141.445 11.2969L146.4 0.340347H149.664V17.2714H145.677L146.28 6.31491L141.325 17.2714H138.06V0.340347Z" fill="url(#paint1_radial_2_614)"/>
<path d="M152.082 0.340347H156.07V6.87215H159.454V0.340347H163.442V17.2714H159.454V9.53173H156.07V17.2714H152.082V0.340347Z" fill="url(#paint2_radial_2_614)"/>
<path d="M165.28 8.8067C165.28 3.9688 167.504 0.00317383 171.976 0.00317383C176.449 0.00317383 178.673 3.97038 178.673 8.8067C178.673 13.643 176.449 17.6102 171.976 17.6102C167.504 17.6102 165.28 13.643 165.28 8.8067ZM171.976 15.0947C173.547 15.0947 174.467 12.3132 174.467 8.8067C174.467 5.30017 173.547 2.51869 171.976 2.51869C170.406 2.51869 169.486 5.30017 169.486 8.8067C169.489 12.3132 170.406 15.0947 171.976 15.0947Z" fill="url(#paint3_radial_2_614)"/>
<path d="M180.509 0.340347H191.993V17.2714H188.005V2.99835H184.5V17.2698H180.512V0.340347H180.509Z" fill="url(#paint4_radial_2_614)"/>
<path d="M193.831 8.8067C193.831 3.9688 196.055 0.00317383 200.526 0.00317383C204.996 0.00317383 207.222 3.97038 207.222 8.8067C207.222 13.643 204.998 17.6102 200.526 17.6102C196.054 17.6102 193.829 13.643 193.829 8.8067H193.831ZM200.529 15.0947C202.099 15.0947 203.019 12.3132 203.019 8.8067C203.019 5.30017 202.099 2.51869 200.529 2.51869C198.958 2.51869 198.039 5.30017 198.039 8.8067C198.039 12.3132 198.955 15.0947 200.529 15.0947Z" fill="url(#paint5_radial_2_614)"/>
<path d="M209.062 0.340347H213.05L212.446 11.2969L217.401 0.340347H220.666V17.2714H216.678L217.281 6.31491L212.326 17.2714H209.062V0.340347Z" fill="url(#paint6_radial_2_614)"/>
<path d="M231.277 11.2953L235.072 11.8763L234.952 12.4573C234.298 15.6029 232.317 17.6086 229.053 17.6086C224.581 17.6086 222.501 13.6414 222.501 8.80511C222.501 3.96879 224.581 0 229.053 0C232.197 0 234.201 2.00893 234.906 4.95822L235.026 5.46481L231.135 6.3355C230.845 3.98937 230.144 2.51235 229.055 2.51235C227.484 2.51235 226.71 5.29383 226.71 8.80036C226.71 12.3069 227.484 15.0884 229.055 15.0884C230.242 15.0947 230.989 13.5195 231.279 11.2953H231.277Z" fill="url(#paint7_radial_2_614)"/>
<path d="M236.715 0.340347H240.703V7.95973L243.967 0.340347H248.078L243.364 8.54072L248.199 17.2714H243.727L240.706 9.65205V17.2714H236.718V0.340347H236.715Z" fill="url(#paint8_radial_2_614)"/>
<path d="M257.946 7.01621V9.6283H253.835V14.6103H258.913V17.2714H249.844V0.340347H258.913V3.00151H253.835V7.01621H257.946Z" fill="#C2EB01"/>
</mask>
<g mask="url(#mask0_2_614)">
<rect x="119.684" width="139.153" height="17.5722" fill="url(#paint9_radial_2_614)"/>
</g>
<defs>
<radialGradient id="paint0_radial_2_614" cx="0" cy="0" r="1" gradientUnits="userSpaceOnUse" gradientTransform="translate(116.697 -11.5599) rotate(2.62) scale(198.929 34.755)">
<stop offset="0.4" stop-color="#FF5300"/>
<stop offset="0.81" stop-color="#B9FF00"/>
<stop offset="1" stop-color="#00FFBF"/>
</radialGradient>
<radialGradient id="paint1_radial_2_614" cx="0" cy="0" r="1" gradientUnits="userSpaceOnUse" gradientTransform="translate(116.697 -11.5598) rotate(2.62) scale(198.929 34.755)">
<stop offset="0.4" stop-color="#FF5300"/>
<stop offset="0.81" stop-color="#B9FF00"/>
<stop offset="1" stop-color="#00FFBF"/>
</radialGradient>
<radialGradient id="paint2_radial_2_614" cx="0" cy="0" r="1" gradientUnits="userSpaceOnUse" gradientTransform="translate(-828.682 20648.1) rotate(2.62) scale(198.929 34.755)">
<stop offset="0.4" stop-color="#FF5300"/>
<stop offset="0.81" stop-color="#B9FF00"/>
<stop offset="1" stop-color="#00FFBF"/>
</radialGradient>
<radialGradient id="paint3_radial_2_614" cx="0" cy="0" r="1" gradientUnits="userSpaceOnUse" gradientTransform="translate(116.697 -11.5598) rotate(2.62) scale(198.929 34.755)">
<stop offset="0.4" stop-color="#FF5300"/>
<stop offset="0.81" stop-color="#B9FF00"/>
<stop offset="1" stop-color="#00FFBF"/>
</radialGradient>
<radialGradient id="paint4_radial_2_614" cx="0" cy="0" r="1" gradientUnits="userSpaceOnUse" gradientTransform="translate(-828.682 20648.1) rotate(2.62) scale(198.929 34.755)">
<stop offset="0.4" stop-color="#FF5300"/>
<stop offset="0.81" stop-color="#B9FF00"/>
<stop offset="1" stop-color="#00FFBF"/>
</radialGradient>
<radialGradient id="paint5_radial_2_614" cx="0" cy="0" r="1" gradientUnits="userSpaceOnUse" gradientTransform="translate(-828.682 20648.1) rotate(2.62) scale(198.929 34.755)">
<stop offset="0.4" stop-color="#FF5300"/>
<stop offset="0.81" stop-color="#B9FF00"/>
<stop offset="1" stop-color="#00FFBF"/>
</radialGradient>
<radialGradient id="paint6_radial_2_614" cx="0" cy="0" r="1" gradientUnits="userSpaceOnUse" gradientTransform="translate(-828.681 20648.1) rotate(2.62) scale(198.929 34.755)">
<stop offset="0.4" stop-color="#FF5300"/>
<stop offset="0.81" stop-color="#B9FF00"/>
<stop offset="1" stop-color="#00FFBF"/>
</radialGradient>
<radialGradient id="paint7_radial_2_614" cx="0" cy="0" r="1" gradientUnits="userSpaceOnUse" gradientTransform="translate(-828.682 20648.1) rotate(2.62) scale(198.929 34.755)">
<stop offset="0.4" stop-color="#FF5300"/>
<stop offset="0.81" stop-color="#B9FF00"/>
<stop offset="1" stop-color="#00FFBF"/>
</radialGradient>
<radialGradient id="paint8_radial_2_614" cx="0" cy="0" r="1" gradientUnits="userSpaceOnUse" gradientTransform="translate(103452 4716.99) rotate(2.62) scale(198.929 34.755)">
<stop offset="0.4" stop-color="#FF5300"/>
<stop offset="0.81" stop-color="#B9FF00"/>
<stop offset="1" stop-color="#00FFBF"/>
</radialGradient>
<radialGradient id="paint9_radial_2_614" cx="0" cy="0" r="1" gradientTransform="matrix(215.171 9.05715 6.25026 34.9781 113.243 -3.3056)" gradientUnits="userSpaceOnUse">
<stop offset="0.403893" stop-color="#FF5300"/>
<stop offset="0.808368" stop-color="#B9FF00"/>
<stop offset="1" stop-color="#00FFBF"/>
</radialGradient>
</defs>
</svg>
